<?xml version="1.0" encoding="utf-8"?>
<!-- Generator: Adobe Illustrator 19.0.0, SVG Export Plug-In . SVG Version: 6.00 Build 0)  -->
<svg version="1.1" id="图层_2" xmlns="http://www.w3.org/2000/svg" xmlns:xlink="http://www.w3.org/1999/xlink" x="0px" y="0px"
	 viewBox="0 0 283.5 283.5" style="enable-background:new 0 0 283.5 283.5;" xml:space="preserve">
<style type="text/css">
	.st0{fill:#3E3A39;}
	.st1{opacity:0.36;}
</style>
<g id="XMLID_6_">
	<polygon id="XMLID_26_" class="st0" points="94.4,116.4 94.4,183.2 74.4,183.2 74.4,134.4 53.2,134.4 53.2,116.4 	"/>
	<polygon id="XMLID_16_" class="st1" points="74.4,138.7 74.4,134.4 94.4,134.4 	"/>
	<rect id="XMLID_15_" x="74.4" y="90.3" class="st0" width="20" height="20"/>
</g>
<g id="XMLID_1_">
	<polygon id="XMLID_3_" class="st0" points="164.1,116.4 164.1,183.2 144,183.2 144,134.4 123,134.4 123,183.2 102.9,183.2 
		102.9,110.3 123,110.3 123,116.4 	"/>
	<polygon id="XMLID_2_" class="st1" points="144,138.7 144,134.4 164.1,134.4 	"/>
</g>
<g id="XMLID_5_">
	<polygon id="XMLID_7_" class="st0" points="233.7,183.2 172.6,183.2 172.6,110.3 223.5,110.3 196.5,142.6 	"/>
	<polygon id="XMLID_10_" class="st1" points="200.7,147.1 196.5,142.6 172.6,171.3 	"/>
</g>
</svg>
